<svg width="82" height="32" viewBox="0 0 82 32" fill="none" xmlns="http://www.w3.org/2000/svg">
<path fill-rule="evenodd" clip-rule="evenodd" d="M81.458 13.0495C81.0914 11.8814 80.5812 10.8245 79.8639 9.90268C79.1465 8.98088 78.2698 8.31336 77.2336 7.81273C76.9387 7.65379 76.58 7.49486 76.2771 7.4154C76.2771 7.4154 76.1655 7.35182 76.0619 7.35182C76.0141 7.35182 75.9583 7.35182 75.9025 7.2962C75.8627 7.2962 75.8069 7.2962 75.8069 7.24057L75.0497 7.08164C74.4917 6.98628 73.7744 6.9386 72.9454 6.98628C71.718 7.04191 70.634 7.30414 69.6775 7.74915C68.6413 8.25774 67.7646 8.97293 67.0472 9.83116C66.3299 10.753 65.8197 11.7622 65.4531 12.986C65.1024 14.1462 64.943 15.4653 64.943 16.7844C64.943 18.1592 65.1024 19.4307 65.4611 20.5988C65.8277 21.767 66.3936 22.8239 67.0552 23.698C67.5733 24.3099 68.1312 24.8105 68.8087 25.2714C69.1116 25.478 69.3666 25.629 69.6855 25.78H69.7253C69.7253 25.78 69.7731 25.78 69.7731 25.8277C69.8073 25.8277 69.8232 25.8437 69.8379 25.8585C69.8506 25.8713 69.8625 25.8833 69.8847 25.8833C70.4028 26.1376 70.9687 26.2806 71.5825 26.3919C73.3758 26.7415 74.9142 26.4952 74.9142 26.4952C75.7351 26.3919 76.5083 26.1376 77.2256 25.8277C78.3017 25.3191 79.1704 24.6118 79.8958 23.7457C80.6131 22.8874 81.1232 21.8146 81.4899 20.6465C81.8406 19.4783 82 18.2069 82 16.8321C82 15.4653 81.7928 14.1938 81.4819 13.0178L81.458 13.0495ZM69.4464 14.1621C69.6536 13.3674 69.9086 12.5966 70.2673 11.9847C70.626 11.3808 71.0883 10.8722 71.5984 10.5225C72.1165 10.1649 72.7302 9.96626 73.3918 9.96626C74.0613 9.96626 74.6272 10.1093 75.1453 10.4669C75.6554 10.8165 76.0619 11.2616 76.4206 11.8337C76.7793 12.4456 77.0423 13.1052 77.2416 13.9157C77.4568 14.7263 77.5604 15.5448 77.5604 16.4586V16.7606C77.5604 17.6745 77.4568 18.5883 77.3053 19.3989C77.0981 20.2174 76.843 20.9246 76.4844 21.5445C76.1257 22.1484 75.6634 22.6013 75.1453 22.9589C74.6352 23.3165 74.0294 23.4675 73.3519 23.4675C72.6824 23.4675 72.0766 23.3086 71.5586 22.9589C71.0405 22.6013 70.5782 22.1484 70.2195 21.5286C69.8528 20.9246 69.5978 20.2174 69.3906 19.3989C69.1913 18.5883 69.1355 17.6745 69.1355 16.7606C69.1913 15.8865 69.2949 14.9806 69.4543 14.17L69.4464 14.1621ZM58.1999 26.67L56.2072 28.9507L56 29.1573L56.2072 31.9545H59.2839L62.5199 28.3467V16.8719L62.4243 15.9977L58.1999 18.1751V26.67Z" fill="white"/>
<path fill-rule="evenodd" clip-rule="evenodd" d="M32.2789 6.18975L30.2657 3.97323L30 3.78459L30.2094 0.970711L33.3097 1.01787L36.6435 4.58631V16.1955L36.5468 16.84L32.2789 14.6392V6.18975ZM60.8499 9.31017C61.5747 10.2219 62.09 11.2673 62.4605 12.4227L62.4766 12.3913C62.8389 13.5546 63 14.8122 63 16.1641C63 17.5239 62.8389 18.7815 62.4846 19.9369C62.1142 21.0923 61.5988 22.1534 60.8741 23.0023C60.1493 23.859 59.2635 24.5585 58.1764 25.0616C57.4517 25.3681 56.6706 25.6196 55.8411 25.7218C55.8411 25.7218 54.287 25.9655 52.4751 25.6197C51.8551 25.5096 51.2833 25.3681 50.7679 25.1166C50.7387 25.1166 50.7246 25.1018 50.7111 25.0875C50.6985 25.0743 50.6865 25.0616 50.6632 25.0616C50.6632 25.0144 50.6069 25.0144 50.6069 25.0144H50.5666C50.2445 24.8651 49.9868 24.7157 49.6808 24.5114C49.0044 24.0555 48.4327 23.5603 47.9092 22.9551C47.2409 22.0905 46.6691 21.0451 46.2987 19.8897C45.9444 18.7343 45.7833 17.4767 45.7833 16.1169C45.7833 14.8122 45.9363 13.5074 46.2906 12.3598C46.6611 11.1494 47.1764 10.1512 47.9012 9.23943C48.6259 8.39055 49.5117 7.68315 50.5586 7.18011C51.5249 6.73995 52.6201 6.48057 53.8602 6.42555C54.6977 6.37839 55.4224 6.42555 55.9861 6.51987L56.7511 6.67707C56.7511 6.73209 56.8075 6.73209 56.8477 6.73209C56.9122 6.78711 56.9605 6.78711 57.0088 6.78711C57.1135 6.78711 57.2262 6.84999 57.2262 6.84999C57.5322 6.92859 57.8946 7.08579 58.1925 7.24299C59.2394 7.73817 60.1252 8.39841 60.8499 9.31017ZM51.2028 11.3695C50.8404 11.9747 50.5827 12.7371 50.3814 13.5231L50.3895 13.531C50.1828 14.3225 50.1252 15.2059 50.0695 16.0603V16.0603L50.0674 16.0933C50.0674 16.9972 50.1157 17.9011 50.325 18.7029C50.5344 19.5124 50.7921 20.212 51.1545 20.8093C51.5168 21.4224 51.9839 21.8704 52.4993 22.2241C53.0227 22.57 53.6428 22.7272 54.3272 22.7272C54.9956 22.7272 55.6237 22.5778 56.1391 22.2241C56.6545 21.8704 57.1215 21.4224 57.4758 20.8251C57.8382 20.212 58.104 19.5124 58.3053 18.7029C58.4663 17.9011 58.5791 16.9972 58.5791 16.0933V15.7947C58.5791 14.8908 58.4663 14.0812 58.257 13.2795C58.0476 12.4777 57.7899 11.8254 57.4275 11.2201C57.0652 10.6542 56.6464 10.2141 56.1391 9.86823C55.6157 9.51453 55.0439 9.37305 54.3675 9.37305C53.683 9.37305 53.071 9.56955 52.5556 9.92325C52.0322 10.2691 51.5652 10.7721 51.2028 11.3695ZM38.9627 6.50415H43.3111V25.9576H38.9627V6.50415Z" fill="white"/>
<path fill-rule="evenodd" clip-rule="evenodd" d="M39.0134 3.97493C39.0134 2.86831 39.9064 1.97019 41.0067 1.97019C42.107 1.97019 43 2.86831 43 3.97493C43 5.08155 42.107 5.97968 41.0067 5.97968C39.9064 6.02779 39.0134 5.13768 39.0134 3.97493ZM23.9677 14.4332C24.175 13.6317 24.4302 12.8543 24.789 12.2371C25.1478 11.628 25.6102 11.1151 26.1205 10.7624C26.6388 10.4017 27.2527 10.2014 27.9145 10.2014C28.5843 10.2014 29.1504 10.3456 29.6686 10.7063C30.1789 11.059 30.5856 11.5078 30.9444 12.0848C31.3032 12.702 31.5583 13.3672 31.7656 14.1847C31.9809 15.0022 32.0845 15.8277 32.0845 16.7494V17.054C32.0845 17.9757 31.9809 18.8974 31.8294 19.7149C31.6221 20.5404 31.367 21.2538 31.0082 21.8789C30.6494 22.488 30.1869 22.9449 29.6686 23.3055C29.1583 23.6662 28.5524 23.8185 27.8746 23.8185C27.2049 23.8185 26.5989 23.6582 26.0807 23.3055C25.5624 22.9449 25.0999 22.488 24.7411 21.8629C24.3744 21.2538 24.1192 20.5404 23.9119 19.7149C23.7126 18.8974 23.6568 17.9757 23.6568 17.054C23.7126 16.1724 23.8162 15.2587 23.9757 14.4412L23.9677 14.4332ZM14.926 10.1372C15.6436 11.067 16.1539 12.1329 16.5207 13.3111L16.5366 13.279C16.8954 14.4652 17.0549 15.7476 17.0549 17.1261C17.0549 18.5127 16.8954 19.7951 16.5446 20.9732C16.1778 22.1514 15.6675 23.2334 14.9499 24.099C14.2323 24.9726 13.3553 25.6859 12.2789 26.1989C11.5613 26.5114 10.7879 26.7679 9.96662 26.8721C9.96662 26.8721 8.42778 27.1206 6.63378 26.7679C6.01984 26.6557 5.45374 26.5114 4.93547 26.255C4.88763 26.255 4.88763 26.255 4.83979 26.1989C4.83979 26.1508 4.78398 26.1508 4.78398 26.1508H4.74411C4.42518 25.9985 4.17004 25.8462 3.86705 25.6378C3.19729 25.173 2.63119 24.668 2.11292 24.0509C1.39533 23.1693 0.885036 22.1514 0.518264 20.9251C0.159466 19.747 0 18.4646 0 17.078C0 15.7476 0.159466 14.4171 0.510291 13.247C0.877063 12.0127 1.38735 10.9948 2.10495 10.0651C2.82255 9.19952 3.69961 8.47819 4.73614 7.96524C5.69293 7.51642 6.7773 7.25193 8.00519 7.19583C8.83441 7.14774 9.55201 7.19583 10.1101 7.292L10.8676 7.4523C10.8676 7.5084 10.9234 7.5084 10.9633 7.5084C11.0271 7.56451 11.0749 7.56451 11.1228 7.56451C11.2264 7.56451 11.338 7.62862 11.338 7.62862C11.641 7.70877 11.9998 7.86907 12.2948 8.02936C13.3314 8.53429 14.2084 9.20753 14.926 10.1372ZM35.9835 13.3111C35.6167 12.1329 35.1064 11.067 34.3888 10.1372C33.6712 9.20753 32.7942 8.53429 31.7577 8.02936C31.4626 7.86907 31.1038 7.70877 30.8009 7.62862C30.8009 7.62862 30.6892 7.56451 30.5856 7.56451C30.5377 7.56451 30.4819 7.56451 30.4261 7.5084C30.3783 7.5084 30.3304 7.5084 30.3304 7.4523L29.565 7.292C29.0069 7.19583 28.2893 7.14774 27.468 7.19583C26.2401 7.25193 25.1558 7.51642 24.199 7.96524C23.1624 8.47819 22.2854 9.19952 21.5678 10.0651C20.8502 10.9948 20.3399 12.0127 19.9731 13.247C19.6223 14.4171 19.4628 15.7476 19.4628 17.078C19.4628 18.4646 19.6223 19.747 19.9811 20.9251C20.3479 22.1033 20.906 23.1693 21.5758 24.0509C22.094 24.668 22.6521 25.173 23.3299 25.6378C23.6329 25.8462 24.2468 26.1508 24.2468 26.1508C24.2468 26.1508 24.2946 26.1508 24.2946 26.1989C24.3288 26.1989 24.3447 26.215 24.3594 26.2299C24.3722 26.2429 24.3841 26.255 24.4063 26.255C24.9245 26.5114 25.4827 26.6557 26.1046 26.7679C27.8986 27.1206 29.4374 26.8721 29.4374 26.8721C30.2587 26.7679 31.0321 26.5114 31.7497 26.1989C32.8261 25.6859 33.6952 24.9726 34.4207 24.099C35.1383 23.2334 35.6486 22.1514 36.0154 20.9732C36.3662 19.7951 36.5177 18.5127 36.5177 17.1261C36.5177 15.7476 36.3184 14.4652 36.0074 13.279L35.9835 13.3111ZM5.37401 12.2371C5.01521 12.8543 4.76007 13.6317 4.56073 14.4332L4.54479 14.4412C4.34546 15.2587 4.28964 16.1804 4.28964 17.1021C4.28964 18.0158 4.34546 18.9535 4.55276 19.779C4.76804 20.6446 5.00724 21.3579 5.32617 21.8629C5.68497 22.488 6.14742 22.9449 6.65771 23.3055C7.17598 23.6582 7.78992 23.8185 8.46765 23.8185C9.12943 23.8185 9.75135 23.6662 10.2616 23.3055C10.7719 22.9449 11.2344 22.488 11.5852 21.8789C11.944 21.2538 12.2071 20.5404 12.4065 19.7149C12.5659 18.8974 12.6616 17.9757 12.6616 17.054L12.6776 16.7494C12.6776 15.8277 12.5659 15.0022 12.3586 14.1847C12.1513 13.3672 11.8962 12.702 11.5374 12.0848C11.1786 11.5078 10.764 11.059 10.2616 10.7063C9.74338 10.3456 9.17727 10.2014 8.50752 10.2014C7.82979 10.2014 7.22382 10.4017 6.71352 10.7624C6.19526 11.1151 5.73281 11.628 5.37401 12.2371Z" fill="white"/>
</svg>
